<?xml version="1.0" encoding="UTF-8"?>
<!DOCTYPE svg PUBLIC "-//W3C//DTD SVG 1.1//EN" "http://www.w3.org/Graphics/SVG/1.1/DTD/svg11.dtd">
<!-- Creator: CorelDRAW X6 -->
<svg xmlns="http://www.w3.org/2000/svg" xml:space="preserve" width="8.5512mm" height="4.2332mm" version="1.1" style="shape-rendering:geometricPrecision; text-rendering:geometricPrecision; image-rendering:optimizeQuality; fill-rule:evenodd; clip-rule:evenodd"
viewBox="0 0 855 423"
 xmlns:xlink="http://www.w3.org/1999/xlink">
 <defs>
  <style type="text/css">
   <![CDATA[
    .fil0 {fill:#737372;fill-rule:nonzero}
    .fil1 {fill:#D83D37;fill-rule:nonzero}
   ]]>
  </style>
 </defs>
 <g id="Vrstva_x0020_1">
  <metadata id="CorelCorpID_0Corel-Layer"/>
  <g id="_212679104">
   <g>
    <g>
     <path class="fil0" d="M62 348l8 -2c1,4 2,6 4,8 3,2 6,3 10,3 4,0 7,-1 9,-3 1,-1 2,-3 2,-5 0,-2 0,-4 -2,-5 -1,-1 -4,-2 -9,-3 -6,-1 -11,-3 -13,-4 -3,-1 -5,-3 -6,-5 -1,-2 -2,-4 -2,-7 0,-2 1,-4 2,-6 1,-2 2,-4 4,-5 1,-1 3,-2 6,-3 2,0 4,-1 7,-1 4,0 8,1 11,2 3,1 5,3 6,5 2,2 3,4 3,8l-8 1c0,-3 -2,-5 -3,-6 -2,-2 -5,-2 -8,-2 -4,0 -7,0 -9,2 -2,1 -2,2 -2,4 0,1 0,2 1,3 0,1 2,2 3,3 1,0 3,1 8,2 6,1 10,3 13,4 2,1 4,2 5,4 2,2 2,5 2,8 0,3 0,5 -2,8 -2,3 -4,5 -7,6 -4,1 -7,2 -11,2 -7,0 -12,-1 -16,-4 -3,-3 -5,-7 -6,-12z"/>
     <path class="fil0" d="M186 355l2 8c-3,0 -5,1 -7,1 -3,0 -6,-1 -7,-2 -2,-1 -3,-2 -4,-4 -1,-2 -1,-5 -1,-10l0 -30 -6 0 0 -6 6 0 0 -13 9 -5 0 18 8 0 0 6 -8 0 0 30c0,3 0,4 0,5 0,1 1,1 2,2 0,0 1,0 3,0 1,0 2,0 3,0z"/>
     <path class="fil0" d="M281 357c-3,2 -6,4 -9,5 -3,1 -6,2 -10,2 -5,0 -10,-1 -13,-4 -3,-3 -4,-6 -4,-11 0,-2 0,-4 1,-7 2,-2 3,-3 5,-5 2,-1 4,-2 6,-2 2,-1 4,-1 8,-2 7,-1 12,-2 15,-3 0,-1 0,-2 0,-2 0,-3 0,-6 -2,-7 -2,-2 -6,-3 -10,-3 -4,0 -7,0 -9,2 -2,1 -3,4 -4,7l-9 -1c1,-3 2,-6 4,-9 2,-2 4,-4 8,-5 3,-1 7,-2 11,-2 5,0 8,1 11,2 3,1 5,2 6,4 1,1 2,3 3,6 0,1 0,4 0,8l0 11c0,8 0,14 1,16 0,2 1,4 2,6l-9 0c-1,-2 -2,-4 -2,-6zm-1 -20l0 0c-3,1 -8,3 -14,3 -3,1 -6,2 -7,2 -2,1 -3,2 -4,3 -1,1 -1,3 -1,4 0,2 1,4 3,6 1,1 4,2 7,2 4,0 7,-1 9,-2 3,-1 5,-3 6,-6 1,-2 1,-5 1,-9l0 -3z"/>
     <path class="fil0" d="M370 363l-20 -51 9 0 11 30c1,4 3,7 4,11 0,-3 1,-6 3,-10l11 -31 9 0 -19 51 -8 0z"/>
     <path class="fil0" d="M493 346l9 1c-2,6 -4,10 -8,13 -4,3 -9,4 -15,4 -7,0 -13,-2 -18,-7 -4,-5 -6,-11 -6,-19 0,-9 2,-16 6,-20 5,-5 10,-8 18,-8 6,0 12,3 16,7 5,5 7,12 7,20 0,1 0,1 0,2l-38 0c0,6 2,10 4,13 3,3 7,5 11,5 3,0 6,-1 8,-3 3,-1 4,-4 6,-8zm-29 -14l0 0 29 0c-1,-4 -2,-7 -4,-9 -2,-4 -6,-5 -10,-5 -4,0 -8,1 -10,4 -3,2 -5,6 -5,10z"/>
     <path class="fil0" d="M573 363l-8 0 0 -71 9 0 0 25c4,-4 8,-7 14,-7 3,0 6,1 9,2 3,2 5,3 7,6 2,2 3,5 4,8 1,3 2,7 2,10 0,9 -2,16 -7,21 -4,5 -9,7 -15,7 -7,0 -11,-3 -15,-8l0 7zm0 -26l0 0c0,6 1,10 3,13 2,5 6,7 11,7 4,0 7,-2 10,-5 2,-3 4,-8 4,-15 0,-7 -2,-11 -4,-15 -3,-3 -6,-4 -10,-4 -4,0 -7,1 -10,5 -2,3 -4,8 -4,14z"/>
     <path class="fil0" d="M673 363l0 -51 8 0 0 7c4,-6 9,-9 16,-9 3,0 6,1 9,2 2,1 4,3 5,4 2,2 3,4 3,7 0,1 1,4 1,8l0 32 -9 0 0 -31c0,-4 0,-7 -1,-8 -1,-2 -2,-3 -4,-4 -1,-2 -3,-2 -6,-2 -3,0 -7,1 -9,3 -3,3 -4,7 -4,14l0 28 -9 0z"/>
     <polygon class="fil0" points="784,363 784,312 792,312 792,363 "/>
    </g>
    <polygon class="fil0" points="784,305 791,292 802,292 792,305 "/>
   </g>
   <g>
    <g>
     <path class="fil1" d="M186 192c-8,0 -18,0 -18,0l0 39c0,0 12,0 18,0 9,0 17,-7 17,-19 0,-13 -6,-20 -17,-20z"/>
     <polygon class="fil1" points="59,59 59,284 100,284 100,59 "/>
     <path class="fil1" d="M195 59c27,0 67,19 67,59 0,41 -27,51 -27,51 0,0 36,9 36,49 0,56 -55,66 -67,66l96 0 0 -225 -105 0z"/>
     <path class="fil1" d="M183 113c-7,0 -15,0 -15,0l0 33c0,0 10,0 15,0 7,0 14,-7 14,-17 0,-10 -5,-16 -14,-16z"/>
    </g>
   </g>
   <g>
    <path class="fil1" d="M450 140c0,-10 -6,-17 -15,-17 -7,0 -16,0 -16,0l0 35c0,0 11,0 16,0 8,0 15,-7 15,-18z"/>
    <polygon class="fil1" points="313,59 313,284 350,284 350,59 "/>
    <polygon class="fil1" points="419,284 455,284 419,212 "/>
    <path class="fil1" d="M426 59c33,0 92,9 92,70 0,62 -35,66 -35,66l53 89 9 0 0 -225 -119 0z"/>
   </g>
   <g>
    <polygon class="fil1" points="708,59 663,59 663,151 "/>
    <polygon class="fil1" points="560,59 560,284 595,284 595,59 "/>
    <polygon class="fil1" points="788,59 724,167 796,284 796,59 "/>
    <polygon class="fil1" points="663,284 709,284 663,192 "/>
   </g>
  </g>
 </g>
</svg>
